<?xml version="1.0" encoding="UTF-8"?>
<svg id="Layer_1" xmlns="http://www.w3.org/2000/svg" version="1.1" viewBox="0 0 26.78 31.35">
  <!-- Generator: Adobe Illustrator 30.6.0, SVG Export Plug-In . SVG Version: 2.1.4 Build 109)  -->
  <path id="mark" d="M3.42,22.43l12.65-8.94c.62-.44,1.51-.27,1.8.41,1.56,3.59.86,7.91-2.23,10.87-3.1,2.96-7.4,3.61-11.34,2.13l-4.3,1.91c6.17,4.04,13.66,3.04,18.34-1.45,3.71-3.55,4.86-8.4,3.79-12.77h0c-1.56-6.41.38-8.98,4.36-14.22.09-.12.19-.25.28-.38l-5.24,5.01v-.02L3.41,22.43" fill="#ff5a1f"/>
  <path id="mark1" data-name="mark" d="M10.73,15.44c-2.7-2.58-2-6.34.3-8.64,1.7-1.7,4.49-2.4,6.92-1.38l2.61-1.21c-.47-.34-1.07-.71-1.77-.96-3.13-1.29-6.88-.65-9.42,1.9-2.45,2.45-3.22,6.22-1.9,9.43.99,2.4-.63,4.1-2.26,5.82-.58.61-1.16,1.22-1.62,1.86l7.13-6.82" fill="#111"/>
  <path d="M14.59,7.77h-2.29v-.65h2.94s0,2.94,0,2.94h-.65s0-2.29,0-2.29Z"/>
  <path d="M24.26,12.36l-7,5.89-.79-.94,7-5.89.79.94Z"/>
</svg>